{"title":"August-Osage County 2013 DVDSCR XVID AC3 HQ Hive-CM8","uid":9449741,"size":1793913105,"categoryP":"video","categoryS":"movies","magnet":"?xt=urn:btih:34cb078d6aba9093cf48a9983191126742831aca&amp;dn=August-Osage+County+2013+DVDSCR+XVID+AC3+HQ+Hive-CM8&amp;tr=udp%3A%2F%2Ftracker.openbittorrent.com%3A80&amp;tr=udp%3A%2F%2Fopen.demonii.com%3A1337&amp;tr=udp%3A%2F%2Ftracker.coppersurfer.tk%3A6969&amp;tr=udp%3A%2F%2Fexodus.desync.com%3A6969","seeders":1,"leechers":0,"uploader":"HeroMaster","files":-1,"time":1389156621,"description":":::::: CM8 PRESENTS :::::::\n\n\n:::: August-Osage County 2013 DVDSCR XVID AC3 HQ Hive-CM8 ::::\n\n\n::Information::\n\n\nCM8 Doing It Right The First Time\nSource: DVDScr DVD-R  Big thanks DRs\n\n\nEncode:\nquality was nice on the dvd, a bit dark and yellowish, otherwise great\nfixed the colouring added brightness and sharpness\n\ngot very nice\nenjoy till next scr\n\nVideo: 720x304 @bitrate 1500 2pass\nAudio: English AC3 5.1 @448\nSample: yes included\n\n\nIMDB: &lt;a href=&quot; http://www.imdb.com/title/tt1322269/&quot; rel=&quot;nofollow&quot; target=&quot;_NEW&quot;&gt; http://www.imdb.com/title/tt1322269/&lt;/a&gt;\n\n\nGeneral\nFormat                         : AVI\nFormat/Info                    : Audio Video Interleave\nFile size                      : 1.65 GiB\nDuration                       : 2h 0mn\nOverall bit rate               : 1 957 Kbps\nWriting application            : Nandub v1.0rc2\nWriting library                : Nandub build 1853/release\n\nVideo\nID                             : 0\nFormat                         : MPEG-4 Visual\nFormat profile                 : Advanced Simple@L5\nFormat settings, BVOP          : 2\nFormat settings, QPel          : Yes\nFormat settings, GMC           : No warppoints\nFormat settings, Matrix        : Default (H.263)\nMuxing mode                    : Packed bitstream\nCodec ID                       : XVID\nCodec ID/Hint                  : XviD\nDuration                       : 2h 0mn\nBit rate                       : 1 500 Kbps\nWidth                          : 720 pixels\nHeight                         : 304 pixels\nDisplay aspect ratio           : 2.35:1\nFrame rate                     : 23.976 fps\nColor space                    : YUV\nChroma subsampling             : 4:2:0\nBit depth                      : 8 bits\nScan type                      : Progressive\nCompression mode               : Lossy\nBits/(Pixel*Frame)             : 0.286\nStream size                    : 1.27 GiB (77%)\nWriting library                : XviD 1.2.1 (UTC 2008-12-04)\n\nAudio\nID                             : 1\nFormat                         : AC-3\nFormat/Info                    : Audio Coding 3\nMode extension                 : CM (complete main)\nFormat settings, Endianness    : Big\nCodec ID                       : 2000\nDuration                       : 2h 0mn\nBit rate mode                  : Constant\nBit rate                       : 448 Kbps\nChannel(s)                     : 6 channels\nChannel positions              : Front: L C R, Side: L R, LFE\nSampling rate                  : 48.0 KHz\nBit depth                      : 16 bits\nCompression mode               : Lossy\nStream size                    : 388 MiB (23%)\nAlignment                      : Split accross interleaves\nInterleave, duration           : 42 ms (1.00 video frame)\nInterleave, preload duration   : 500 ms\n\n\n::Plot::\n\n\nA look at the lives of the strong-willed women of the Weston family, whose paths have diverged until a family crisis brings them back to the Oklahoma house they grew up in, and to the dysfunctional woman who raised them.\n\n\n::Cast::\n\n\nMeryl Streep ... Violet Weston\nJulia Roberts ... Barbara Weston\nChris Cooper ... Charlie Aiken\nEwan McGregor ... Bill Fordham\nJuliette Lewis ... Karen Weston\n\n\n::Greetz and Respect::\n\n\nALL CREDIT Goes to CM8 for Encoding and harks87 for Distribution.\n\n\n::Poster::\n\n &lt;a href=&quot;\nhttp://i.imgur.com/xdX23Sw.jpg&quot; rel=&quot;nofollow&quot; target=&quot;_NEW&quot;&gt;\nhttp://i.imgur.com/xdX23Sw.jpg&lt;/a&gt;\n\n\n::Screenshots::\n\n &lt;a href=&quot;\nhttp://i.imgur.com/SqJMavn.jpg&quot; rel=&quot;nofollow&quot; target=&quot;_NEW&quot;&gt;\nhttp://i.imgur.com/SqJMavn.jpg&lt;/a&gt;\n\n\nSEED AND ENJOY!","torrent":{"xt":"urn:btih:34cb078d6aba9093cf48a9983191126742831aca","amp;dn":"August-Osage+County+2013+DVDSCR+XVID+AC3+HQ+Hive-CM8","amp;tr":["udp%3A%2F%2Ftracker.openbittorrent.com%3A80","udp%3A%2F%2Fopen.demonii.com%3A1337","udp%3A%2F%2Ftracker.coppersurfer.tk%3A6969","udp%3A%2F%2Fexodus.desync.com%3A6969"],"infoHash":"34cb078d6aba9093cf48a9983191126742831aca","infoHashBuffer":{"type":"Buffer","data":[52,203,7,141,106,186,144,147,207,72,169,152,49,145,18,103,66,131,26,202]},"announce":[],"urlList":[]}}